<svg width="1373" height="1586" viewBox="0 0 1373 1586" fill="none" xmlns="http://www.w3.org/2000/svg">
<path d="M184.667 0.666663C120.933 1.46666 114.4 1.73333 103.867 4.4C48.5334 17.7333 14.9334 54 3.06671 113.333C0.800043 124.8 0.66671 155.467 0.26671 783.333C4.31291e-05 1226.4 0.26671 1449.87 1.20004 1467.47C3.46671 1508.67 8.93338 1535.2 19.6 1555.33C24.8 1565.33 26.4 1567.33 35.2 1575.07C45.2 1583.73 56.1334 1586.53 75.2 1585.6C106.533 1584 125.6 1572.93 136.933 1549.73C145.333 1532.67 148.8 1511.73 150.667 1465.33C153.067 1406.13 155.6 1385.07 162.933 1362.13C176.267 1320 202.933 1295.2 247.2 1284C269.467 1278.4 279.867 1278 417.333 1277.47C548 1277.07 559.6 1276.67 603.333 1271.87C743.333 1256.67 845.333 1211.33 930.133 1126.67C964.267 1092.53 989.333 1058.27 1011.2 1015.33C1035.07 968.667 1038.8 944.667 1026.27 918C1018.4 901.2 997.733 884.8 975.333 877.467C953.2 870.267 978.667 870.8 612.667 870L275.333 869.2L260.267 866.267C232.667 860.933 212.267 852.667 197.733 841.067C175.6 823.333 164.133 801.733 156.4 763.333C154.4 752.933 154.133 732.667 153.733 528C153.333 371.867 153.6 300 154.667 290.667C158.4 255.867 171.067 223.6 188.933 203.333C216 172.533 249.467 157.6 299.6 154C323.333 152.267 507.867 152.267 551.333 154C633.2 157.2 693.067 165.733 751.867 182.667C850.667 211.067 937.6 257.333 1010 320C1063.47 366.4 1114.4 429.733 1141.33 483.2C1151.6 503.467 1155.2 515.333 1155.2 528.8C1155.33 539.067 1154.93 540.8 1151.73 545.733C1146.8 553.067 1138.93 557.333 1125.6 560C1110.4 563.067 1052.93 562.267 1040.8 558.667C1020 552.8 1005.33 541.6 982 514.133C976.133 507.2 965.6 494.933 958.667 486.8C881.333 396.4 780.4 340.8 655.333 319.333C604.8 310.8 574.533 308.667 488 307.733C414.933 306.933 402.8 307.467 384.267 312.133C347.467 321.333 321.467 348 311.733 386.667L308.667 398.667V506C308.667 604.133 308.933 614.267 311.067 624.667C321.6 674.8 345.867 701.467 390.667 712.133C400.133 714.4 420.267 714.533 746 715.333L1091.33 716.133L1106.53 719.067C1178.53 732.933 1214.67 769.867 1214.67 829.733C1214.67 869.467 1204.93 930.267 1190.53 980C1166.67 1062.27 1124.93 1139.47 1069.6 1203.33C1060.13 1214.27 1022 1252.53 1011.33 1261.87C920.4 1341.47 796.4 1399.33 672 1419.87C617.333 1428.93 591.867 1430.4 486.667 1430.67C420.667 1430.8 392.4 1431.33 384.8 1432.53C343.867 1439.07 324.667 1451.87 314.667 1479.2C309.467 1493.47 307.6 1507.07 308.267 1525.73C308.8 1540.4 309.2 1542.4 313.067 1550.4C323.867 1572.27 347.333 1581.87 397.733 1584.67C428.8 1586.53 578.533 1584.13 612 1581.33C740.533 1570.67 850.4 1540.67 951.467 1488.8C983.2 1472.4 997.333 1464.27 1026 1445.33C1181.07 1343.2 1292.53 1188.53 1343.33 1005.47C1398.93 804.533 1374.93 589.067 1276.93 410.667C1234.53 333.333 1176.4 261.333 1112.67 206.8C1106.8 201.733 1100.27 196 1098 194.133C1095.87 192.267 1088.67 186.4 1082 181.2C983.867 103.867 857.6 45.7333 733.733 20.6667C687.067 11.2 643.733 6 574.667 1.86666C546.933 0.13333 284.933 -0.66667 184.667 0.666663Z" fill="black"/>
</svg>
